<svg width="147" height="31" fill="none" xmlns="http://www.w3.org/2000/svg">
    <path
        d="M25.209 17.731v.978c-2.552 0-2.767.762-3.529 3.274l-1.662 5.396a16.958 16.958 0 01-9.98 2.932C3.579 30.311 0 26.098 0 19.813 0 10.673 8.25.01 17.936.01c2.41.042 4.751.812 6.715 2.209l.978-.89.723.206-1.661 9.05h-.802c.254-4.163-.9-9.647-6.119-9.647-6.676 0-13.684 10.88-13.684 19.383 0 4.291 1.486 9.13 6.588 9.13 3.822 0 5.268-1.613 6.03-4.242l.89-3.02a7.704 7.704 0 00.381-2.21c0-1.231-1.954-1.231-2.932-1.231V17.73H25.21zM35.746 0h5.864l-5.65 13.978c-.596 1.407-5.395 13.176-5.395 13.518 0 .342.127.342.381.342.636 0 3.91-4.252 4.291-4.936l.685.43c-1.574 2.082-4.673 6.842-7.605 6.842-.9 0-1.241-.684-1.241-1.495.103-.629.29-1.24.557-1.818.977-2.473 10.116-24.652 10.116-25.121 0-.85-1.28-.85-2.385-.85l.382-.89zM39.538 23.801c0-5.19 5.395-12.961 10.918-12.961 3.734 0 4.672 3.44 4.672 6.5 0 5.18-5.053 12.795-10.752 12.795-3.606 0-4.887-3.235-4.887-6.334h.049zm4.281 5.523c3.568 0 8.885-9.941 8.885-14.877 0-1.31-.264-2.502-1.75-2.805-3.782-.714-9.09 11.475-9.09 15.043 0 1.32.47 2.639 1.955 2.639zM57.562 29.666c.802-2.17 7.136-15.297 7.136-16.49 0-.293-.127-.47-.42-.47-.685 0-4.126 4.126-4.76 4.888l-.558-.381c1.28-1.828 5.063-6.373 7.35-6.373 1.105 0 1.281.978 1.281 1.828a14.478 14.478 0 01-.645 2.805l.088.078c1.407-2.375 3.783-4.711 6.764-4.711 1.437 0 2.59.675 2.59 2.21a1.819 1.819 0 01-1.789 1.866c-1.827 0-.977-2.463-2.59-2.463-4.672 0-9.481 13.557-11.31 17.213h-3.137zM74.98 17.467c1.36-1.867 5.142-6.627 7.606-6.627.81 0 1.368.342 1.368 1.232a6 6 0 01-.596 2.209l-5.61 13.088c-.05.088-.177.684.077.684 1.242 0 3.91-3.323 4.594-4.379l.47.47c-1.574 2.032-4.38 5.991-7.224 5.991-.977 0-1.231-.977-1.231-1.7 0-.724 4.76-11.476 5.395-13.01.254-.509 1.193-2.718.675-2.718-.978 0-4.243 4.291-4.888 5.141l-.635-.38zM86.76 23.801c0-5.19 5.395-12.961 10.917-12.961 3.744 0 4.673 3.44 4.673 6.5 0 5.18-5.054 12.795-10.752 12.795-3.607 0-4.888-3.235-4.888-6.334h.05zm4.28 5.523c3.568 0 8.885-9.941 8.885-14.877 0-1.31-.254-2.502-1.75-2.805-3.772-.714-9.09 11.475-9.09 15.043 0 1.32.47 2.639 1.955 2.639zM124.372 11.31l-6.549 15.55c-.088.167-.548 1.232 0 1.232.889 0 3.988-4.203 4.672-5.102l.596.342c-.43.977-4.887 6.842-6.637 6.842-1.231 0-1.828-.645-1.828-1.32 0-2.081 1.955-5.776 2.6-7.692l-.088-.088c-1.612 2.805-6.206 9.1-9.774 9.1-1.447 0-1.955-.723-1.955-2.13 0-2.122 6.461-13.94 6.119-14.79-.088-.205 0-.254-.293-.332-1.75.762-2.767 2.63-4.086 3.91l-.636-.557c1.232-1.613 4.761-5.435 6.843-5.435.85 0 1.534.254 1.534 1.232a5.04 5.04 0 01-.469 1.7l-5.65 12.756a2.818 2.818 0 00-.254 1.193.675.675 0 00.636.596c2.932 0 10.243-11.26 12.237-17.037l2.982.03zM124.372 27.203a1.449 1.449 0 01.889-1.465c.189-.078.392-.115.597-.109 2.258 0 1.74 3.607 4.164 3.607a3.007 3.007 0 003.078-1.915c.156-.405.223-.839.196-1.272 0-2.883-3.695-5.22-3.695-9.178a6.09 6.09 0 015.943-6.031c1.535 0 3.783.596 3.783 2.463 0 .811-.977 1.359-1.701 1.359-1.525 0-1.691-2.59-3.695-2.59-1.612 0-2.121 1.828-2.121 3.098 0 2.727 3.91 6.295 3.91 9.227a5.775 5.775 0 01-5.777 5.738c-1.7 0-5.571-.47-5.571-2.932zM82.566 2.952a2.707 2.707 0 000 3.812c.276.273.61.48.977.606a.743.743 0 00.802 0c.283-.283.117-.977.88-1.75.762-.772 1.466-.596 1.75-.87a.782.782 0 000-.81 2.599 2.599 0 00-.617-.978 2.688 2.688 0 00-3.812 0M142.973 26.606a1.4 1.4 0 01-.362.069h-2.141a1.468 1.468 0 01-.371-.069l-.186.792c.068-.078.127-.163.176-.254.053-.082.112-.16.176-.234.088-.108.127-.157.264-.157h.675v2.522c0 .156-.069.195-.362.215v.098h1.222v-.098c-.333 0-.381-.068-.381-.215v-2.522h.674a.285.285 0 01.264.157c.079.102.151.21.215.322l.107.166h.059l-.156-.801.127.01zM147 26.812v-.088h-.704l-1.046 2.375-1.104-2.375h-.763v.088c.157 0 .264 0 .274.166v2.346c0 .176-.107.215-.362.215v.098h.9v-.098c-.254 0-.372-.069-.372-.215v-2.112l1.163 2.464h.127l1.076-2.493v2.15c0 .157 0 .186-.342.216v.097h1.114v-.097c-.196 0-.293 0-.293-.215v-2.268c.029-.215.107-.235.332-.254z"
        fill="#044040"></path>
</svg>